# xmcd
#
# Track frame offsets:
#	150
#	9379
#	44087
#	76619
#	112615
#	121355
#	129436
#	139313
#	143826
#	151710
#	163695
#	173631
#	185031
#
# Disc length: 2905 seconds
#
# Revision: 0
# Processed by: cddbd v1.5.2PL0 Copyright (c) Steve Scherf et al.
# Submitted via: EasyCDDAExtractor 16.0.6.1
#
DISCID=a00b570d
DTITLE=Χορός ψαλτών - Η Ακολουθία του μικρού αποδείπνου-Ι.Μ. Μαχαιρά
DYEAR=2004
DGENRE=Βυζ. Εκκλησιαστική
TTITLE0=Μέρος 1
TTITLE1=Μέρος 2
TTITLE2=Μέρος 3
TTITLE3=Μέρος 4
TTITLE4=Μέρος 5
TTITLE5=Μέρος 6
TTITLE6=Μέρος 7
TTITLE7=Μέρος 8
TTITLE8=Μέρος 9
TTITLE9=Μέρος 10
TTITLE10=Μέρος 11
TTITLE11=Μέρος 12
TTITLE12=Μέρος 13
EXTD=
EXTT0=
EXTT1=
EXTT2=
EXTT3=
EXTT4=
EXTT5=
EXTT6=
EXTT7=
EXTT8=
EXTT9=
EXTT10=
EXTT11=
EXTT12=
PLAYORDER=
